<svg id="Layer_1" data-name="Layer 1" xmlns="http://www.w3.org/2000/svg" viewBox="0 0 270.4 270.94"><defs><style>.cls-1{fill:#fff;}</style></defs><path d="M111.11,175.56a77.67,77.67,0,1,1,77.78,77.63A77.75,77.75,0,0,1,111.11,175.56Zm78.61-57.51V234.41c21.35-.93,38.2-9.73,49.17-27.9,12-19.93,12-40.62,0-60.55C227.92,127.79,211.07,119,189.72,118.05Z" transform="translate(-53.8 -40.03)"/><path d="M300.23,181.19c-5.6,0-11.2,0-16.8,0-4.27,0-7.1-2.63-7.1-6.52s2.81-6.52,7.12-6.53q16.79-.06,33.59,0c4.25,0,7.17,2.74,7.16,6.55s-3,6.5-7.17,6.51C311.43,181.2,305.83,181.19,300.23,181.19Z" transform="translate(-53.8 -40.03)"/><path d="M183.1,286.9c0-5.6,0-11.2,0-16.8,0-4.15,2.58-7,6.36-7s6.65,2.71,6.67,7q.08,16.92,0,33.84c0,4.22-2.83,7.14-6.62,7.08s-6.41-3-6.42-7.27C183.09,298.1,183.1,292.5,183.1,286.9Z" transform="translate(-53.8 -40.03)"/><path d="M194.46,64.16c0,5.6,0,11.2,0,16.8,0,4.1-2.67,6.92-6.45,7s-6.57-2.71-6.59-6.81q-.09-17.16,0-34.31a6.53,6.53,0,1,1,13,.09C194.49,52.65,194.46,58.4,194.46,64.16Z" transform="translate(-53.8 -40.03)"/><path d="M279.82,272.78c-1.53-.86-3.33-1.43-4.54-2.62-8.11-7.94-16.12-16-24.12-24.05-2.9-2.92-3-6.8-.3-9.49s6.61-2.62,9.48.23q12.17,12.09,24.25,24.26a6.33,6.33,0,0,1,1.5,7.38A7.75,7.75,0,0,1,279.82,272.78Z" transform="translate(-53.8 -40.03)"/><path d="M98.52,78.75A14.85,14.85,0,0,1,102.39,81c8.11,7.93,16.12,16,24.1,24,2.79,2.81,2.83,6.67.26,9.3a6.47,6.47,0,0,1-9.49-.11q-12.09-12-24.08-24.07a6.31,6.31,0,0,1-1.52-7.36C92.73,80.18,94.82,78.94,98.52,78.75Z" transform="translate(-53.8 -40.03)"/><path d="M91.92,265.9a14.37,14.37,0,0,1,2.16-3.81q11.92-12.18,24.08-24.15a6.51,6.51,0,1,1,9.24,9.18q-12.09,12.19-24.28,24.29a6.19,6.19,0,0,1-7.19,1.44C93.37,271.77,92.08,269.71,91.92,265.9Z" transform="translate(-53.8 -40.03)"/><path d="M285.47,85c-.52.95-1.06,2.78-2.24,4-7.86,8.08-15.83,16.06-23.82,24a6.49,6.49,0,0,1-9.33.19c-2.7-2.65-2.67-6.58.2-9.48Q262.08,91.81,274,79.93a6.34,6.34,0,0,1,7.35-1.6C283.92,79.37,285.11,81.49,285.47,85Z" transform="translate(-53.8 -40.03)"/><path d="M77.39,182.71c-5.52,0-11,0-16.57,0-4.14,0-7-2.64-7-6.38s2.82-6.56,7.07-6.57q16.7,0,33.37,0c4.18,0,6.94,2.57,7,6.38s-2.73,6.55-7,6.57C88.59,182.73,83,182.71,77.39,182.71Z" transform="translate(-53.8 -40.03)"/><path class="cls-1" d="M189.72,118.05c21.35.94,38.2,9.74,49.17,27.91,12,19.93,12,40.62,0,60.55-11,18.17-27.82,27-49.17,27.9Z" transform="translate(-53.8 -40.03)"/></svg>