<svg id="Layer_1" data-name="Layer 1" xmlns="http://www.w3.org/2000/svg" viewBox="0 0 48 34"><defs><style>.cls-1,.cls-2{fill:#d7d7d7;}.cls-2{fill-rule:evenodd;}</style></defs><path class="cls-1" d="M23,17a1.12,1.12,0,0,0-.32,0,12.43,12.43,0,0,0-10.38,6.08c-3.26-1.06-6.93-.75-9.48,1.73A9.39,9.39,0,0,0,.62,34.93,9.5,9.5,0,0,0,9,41c5.38,0,10.19,0,14.09,0,5.81-.29,9.89-4.56,10.74-10.12A12.07,12.07,0,0,0,26.13,17.6,10.57,10.57,0,0,0,23,17ZM23,19h0a8,8,0,0,1,2.49.48,10.06,10.06,0,0,1,6.43,11A9.86,9.86,0,0,1,22.52,39c-4.46,0-8.94,0-13.41,0a7.47,7.47,0,0,1-6.62-4.78,7.37,7.37,0,0,1,1.75-7.93c2.07-2,5.19-2.18,8.06-1.12a1.06,1.06,0,0,0,1.21-.34C16.37,20.49,19.6,19,23,19Z" transform="translate(0 -7)"/><path class="cls-1" d="M32.57,14a7.6,7.6,0,0,0-6.44,4.52,1,1,0,1,0,1.83.81,5.58,5.58,0,0,1,6.84-3.11,6,6,0,0,1,4.13,6.62A5.88,5.88,0,0,1,33.16,28a1,1,0,1,0,0,2,7.9,7.9,0,0,0,7.76-6.86,8,8,0,0,0-5.53-8.81A7.8,7.8,0,0,0,32.57,14Z" transform="translate(0 -7)"/><path class="cls-2" d="M33,7a1,1,0,0,0-1,1v3a1,1,0,0,0,2,0V8a1,1,0,0,0-1-1Z" transform="translate(0 -7)"/><path class="cls-2" d="M43,11a1,1,0,0,0-.69.3l-2,2a1,1,0,1,0,1.38,1.44l0,0,2-2A1,1,0,0,0,43,11Z" transform="translate(0 -7)"/><path class="cls-2" d="M41,29a1,1,0,0,0-1,1,1,1,0,0,0,.3.72l2,2a1,1,0,0,0,1.44-1.38l0,0-2-2A1,1,0,0,0,41,29Z" transform="translate(0 -7)"/><path class="cls-2" d="M44,20a1,1,0,0,0,0,2h3a1,1,0,1,0,0-2H44Z" transform="translate(0 -7)"/><path class="cls-2" d="M23,11a1,1,0,0,0-1,1,1,1,0,0,0,.3.72l2,2a1,1,0,1,0,1.44-1.38l0,0-2-2A1,1,0,0,0,23,11Z" transform="translate(0 -7)"/></svg>