<svg id="Layer_1" data-name="Layer 1" xmlns="http://www.w3.org/2000/svg" viewBox="0 0 42.99 31.02"><defs><style>.cls-1{fill:#d7d7d7;}</style></defs><path class="cls-1" d="M33.86,0h-.13a.94.94,0,0,0-.32.11A9,9,0,0,0,26,8.94v.13a1,1,0,0,0,.57.84,9.49,9.49,0,0,1,5.27,6.94,1,1,0,0,0,.72.79A9.24,9.24,0,0,0,35,18h0a9,9,0,0,0,7.85-4.63A1,1,0,0,0,42.51,12a1,1,0,0,0-.64-.12,6.74,6.74,0,0,1-1,.08h0a7,7,0,0,1-7-7,7.3,7.3,0,0,1,.9-3.45A1,1,0,0,0,34.39.16,1,1,0,0,0,33.88,0Zm-1.7,2.61a9.6,9.6,0,0,0-.31,2.32,9,9,0,0,0,7.95,8.83A6.83,6.83,0,0,1,35,16a7.36,7.36,0,0,1-1.41-.19,11.44,11.44,0,0,0-5.53-7.28A6.93,6.93,0,0,1,32.16,2.61Z" transform="translate(0)"/><path class="cls-1" d="M23,7a.86.86,0,0,0-.32,0,12.43,12.43,0,0,0-10.38,6.11c-3.25-1.06-6.93-.75-9.48,1.74A9.37,9.37,0,0,0,.62,24.92,9.53,9.53,0,0,0,9,31c22.18-.1-11,.09,13.75,0,7,0,10.78-6.13,11.09-10.14A12.08,12.08,0,0,0,26.13,7.63,10.27,10.27,0,0,0,23,7ZM23,9h0a8.08,8.08,0,0,1,2.48.48,10.06,10.06,0,0,1,6.43,11A9.89,9.89,0,0,1,22.51,29c-5.17.11-7.88.07-13.41,0a7.49,7.49,0,0,1-6.59-4.78,7.37,7.37,0,0,1,1.73-7.9c2-2.23,4.89-2.09,8.06-1.12a1.35,1.35,0,0,0,1.4-.57C15.78,11.45,19.33,8.9,23,9Z" transform="translate(0)"/></svg>