<svg id="Layer_1" data-name="Layer 1" xmlns="http://www.w3.org/2000/svg" viewBox="0 0 48 34"><defs><style>.cls-1{fill:#d7d7d7;}</style></defs><path class="cls-1" d="M32.58,7a1,1,0,0,0-.24,0c-6,0-11.68,3.52-14.87,8.92C12.83,14.33,7.56,14.77,4,18.3h0A13.36,13.36,0,0,0,.86,32.49h0A13.21,13.21,0,0,0,12.55,41H32A16.64,16.64,0,0,0,47.79,26.59h0A17,17,0,0,0,36.94,7.88h0A15.24,15.24,0,0,0,32.68,7h-.1Zm0,2a13.5,13.5,0,0,1,3.68.77,15,15,0,0,1,9.54,16.51h0A14.61,14.61,0,0,1,31.93,39H12.63a11.2,11.2,0,0,1-9.9-7.22,11.34,11.34,0,0,1,2.62-12c3.12-3.05,7.78-3.26,12-1.73a1.21,1.21,0,0,0,1.48-.6c3-5,8.29-8.53,13.71-8.4Z" transform="translate(0 -7)"/></svg>