<svg id="Layer_1" data-name="Layer 1" xmlns="http://www.w3.org/2000/svg" viewBox="0 0 48 38"><defs><style>.cls-1,.cls-2{fill:#d7d7d7;}.cls-2{fill-rule:evenodd;}</style></defs><path class="cls-1" d="M24.39,5a1,1,0,0,0-.24,0A19.43,19.43,0,0,0,10,23.62a19.71,19.71,0,0,0,37.93,7.2,1,1,0,0,0-1.21-1.34,17.7,17.7,0,0,1-5,.71A17.51,17.51,0,0,1,24.08,12.82h0a17.16,17.16,0,0,1,1.28-6.44,1,1,0,0,0-.55-1.3A1,1,0,0,0,24.39,5ZM22.84,7.84a19,19,0,0,0-.76,5A19.55,19.55,0,0,0,41.76,32.19h0a19.8,19.8,0,0,0,3.33-.48A17.59,17.59,0,0,1,12,23.62,17.2,17.2,0,0,1,22.84,7.84Z" transform="translate(0 -5)"/><path class="cls-2" d="M17,18a1,1,0,0,0,0,2H37a1,1,0,0,0,0-2H17Z" transform="translate(0 -5)"/><path class="cls-2" d="M1,25a1,1,0,0,0,0,2H21a1,1,0,1,0,0-2H1Z" transform="translate(0 -5)"/><path class="cls-2" d="M9,32a1,1,0,0,0,0,2H29a1,1,0,0,0,0-2H9Z" transform="translate(0 -5)"/></svg>