<svg xmlns="http://www.w3.org/2000/svg" xmlns:xlink="http://www.w3.org/1999/xlink" version="1.1" x="0px" y="0px" viewBox="0 0 100 125" enable-background="new 0 0 100 100" xml:space="preserve"><g><path d="M50,20.155c-16.457,0-29.845,13.389-29.845,29.845c0,16.456,13.389,29.845,29.845,29.845   c16.456,0,29.845-13.389,29.845-29.845C79.845,33.543,66.456,20.155,50,20.155z M50,75.845c-14.251,0-25.845-11.594-25.845-25.845   S35.749,24.155,50,24.155S75.845,35.749,75.845,50S64.251,75.845,50,75.845z"/><path d="M50,29.041c-11.557,0-20.959,9.402-20.959,20.959c0,1.104,0.896,2,2,2s2-0.896,2-2c0-9.351,7.608-16.959,16.959-16.959   c1.104,0,2-0.896,2-2S51.104,29.041,50,29.041z"/><path d="M50,17.39c1.104,0,2-0.896,2-2v-3.862c0-1.104-0.896-2-2-2s-2,0.896-2,2v3.862C48,16.495,48.896,17.39,50,17.39z"/><path d="M30.963,21.027c0.37,0.642,1.042,1,1.734,1c0.339,0,0.683-0.086,0.998-0.269c0.957-0.552,1.284-1.775,0.732-2.732   l-3.862-6.689c-0.551-0.957-1.775-1.286-2.732-0.732c-0.957,0.552-1.284,1.775-0.732,2.732L30.963,21.027z"/><path d="M12.338,30.565l6.689,3.862c0.315,0.182,0.659,0.269,0.998,0.269c0.691,0,1.364-0.359,1.734-1   c0.552-0.957,0.225-2.18-0.732-2.732l-6.689-3.862c-0.957-0.553-2.181-0.225-2.732,0.732C11.054,28.79,11.381,30.013,12.338,30.565   z"/><path d="M15.39,52c1.104,0,2-0.896,2-2s-0.896-2-2-2h-3.862c-1.104,0-2,0.896-2,2s0.896,2,2,2H15.39z"/><path d="M19.027,65.572l-6.689,3.862c-0.957,0.553-1.284,1.776-0.732,2.732c0.371,0.642,1.042,1,1.734,1   c0.339,0,0.683-0.086,0.998-0.268l6.689-3.862c0.957-0.553,1.284-1.776,0.732-2.732C21.206,65.348,19.983,65.021,19.027,65.572z"/><path d="M33.695,78.24c-0.957-0.552-2.18-0.225-2.732,0.732l-3.862,6.689c-0.552,0.957-0.225,2.18,0.732,2.732   c0.315,0.182,0.659,0.268,0.998,0.268c0.691,0,1.364-0.358,1.734-1l3.862-6.689C34.979,80.016,34.651,78.793,33.695,78.24z"/><path d="M50,82.61c-1.104,0-2,0.896-2,2v3.861c0,1.104,0.896,2,2,2s2-0.896,2-2V84.61C52,83.506,51.104,82.61,50,82.61z"/><path d="M69.037,78.973c-0.553-0.956-1.777-1.285-2.732-0.732c-0.957,0.553-1.284,1.775-0.732,2.732l3.862,6.689   c0.371,0.642,1.043,1,1.734,1c0.339,0,0.684-0.086,0.998-0.268c0.957-0.553,1.284-1.775,0.732-2.732L69.037,78.973z"/><path d="M87.662,69.435l-6.689-3.862c-0.959-0.553-2.18-0.225-2.732,0.732c-0.552,0.957-0.225,2.18,0.732,2.732l6.689,3.862   c0.315,0.182,0.659,0.268,0.998,0.268c0.691,0,1.363-0.358,1.734-1C88.946,71.21,88.619,69.987,87.662,69.435z"/><path d="M88.472,48H84.61c-1.104,0-2,0.896-2,2s0.896,2,2,2h3.861c1.104,0,2-0.896,2-2S89.576,48,88.472,48z"/><path d="M79.975,34.695c0.339,0,0.683-0.086,0.998-0.269l6.689-3.862c0.957-0.552,1.284-1.775,0.732-2.732   c-0.554-0.957-1.774-1.287-2.732-0.732l-6.689,3.862c-0.957,0.552-1.284,1.775-0.732,2.732   C78.611,34.336,79.283,34.695,79.975,34.695z"/><path d="M66.305,21.759c0.315,0.182,0.659,0.269,0.998,0.269c0.691,0,1.363-0.359,1.734-1l3.862-6.689   c0.552-0.957,0.225-2.18-0.732-2.732c-0.96-0.554-2.18-0.224-2.732,0.732l-3.862,6.689C65.021,19.983,65.348,21.207,66.305,21.759z   "/></g></svg>
