<svg id="Layer_1" data-name="Layer 1" xmlns="http://www.w3.org/2000/svg" viewBox="0 0 270.38 271.29"><path d="M57.31,135.53a77.67,77.67,0,1,1,77.78,77.63A77.66,77.66,0,0,1,57.31,135.53ZM135.92,78V194.38c21.35-.93,38.2-9.73,49.17-27.9,12-19.93,12-40.62,0-60.55C174.12,87.76,157.27,79,135.92,78Z" transform="translate(-0.02 0.3)"/><path d="M246.43,141.16h-16.8c-4.27,0-7.1-2.63-7.1-6.52s2.81-6.52,7.12-6.53q16.78-.06,33.59,0c4.25,0,7.17,2.74,7.16,6.55s-3,6.5-7.17,6.51Z" transform="translate(-0.02 0.3)"/><path d="M129.3,246.87v-16.8c0-4.15,2.58-7,6.36-7s6.65,2.71,6.67,7q.07,16.92,0,33.84c0,4.22-2.83,7.14-6.62,7.08s-6.41-3-6.42-7.27C129.29,258.07,129.3,252.47,129.3,246.87Z" transform="translate(-0.02 0.3)"/><path d="M140.66,24.13v16.8c0,4.1-2.67,6.92-6.45,7s-6.57-2.71-6.59-6.81q-.09-17.16,0-34.31a6.53,6.53,0,1,1,13,.09C140.69,12.62,140.66,18.37,140.66,24.13Z" transform="translate(-0.02 0.3)"/><path d="M226,232.75c-1.53-.86-3.33-1.43-4.54-2.62-8.11-7.94-16.12-16-24.12-24-2.9-2.92-3-6.8-.3-9.49s6.61-2.62,9.48.23q12.17,12.09,24.25,24.26a6.32,6.32,0,0,1,1.5,7.38A7.75,7.75,0,0,1,226,232.75Z" transform="translate(-0.02 0.3)"/><path d="M44.72,38.72A14.84,14.84,0,0,1,48.59,41c8.11,7.93,16.12,16,24.1,24,2.79,2.81,2.83,6.67.26,9.3a6.48,6.48,0,0,1-9.15.24c-.12-.11-.23-.23-.34-.35q-12.09-12-24.08-24.07a6.31,6.31,0,0,1-1.52-7.36C38.93,40.15,41,38.91,44.72,38.72Z" transform="translate(-0.02 0.3)"/><path d="M38.12,225.87a14.36,14.36,0,0,1,2.16-3.81q11.92-12.18,24.08-24.15a6.51,6.51,0,0,1,9.24,9.18q-12.09,12.19-24.28,24.29a6.2,6.2,0,0,1-7.19,1.44C39.57,231.74,38.28,229.68,38.12,225.87Z" transform="translate(-0.02 0.3)"/><path d="M231.67,45c-.52,1-1.06,2.78-2.24,4C221.57,57.05,213.6,65,205.61,73a6.48,6.48,0,0,1-9.17.34l-.16-.15c-2.7-2.65-2.67-6.58.2-9.48q11.81-11.9,23.72-23.78a6.34,6.34,0,0,1,7.35-1.6C230.12,39.34,231.31,41.46,231.67,45Z" transform="translate(-0.02 0.3)"/><path d="M23.59,142.68H7c-4.14,0-7-2.64-7-6.38s2.82-6.56,7.07-6.57H40.46c4.18,0,6.94,2.57,7,6.38s-2.73,6.55-7,6.57C34.79,142.7,29.2,142.68,23.59,142.68Z" transform="translate(-0.02 0.3)"/><path d="M135.92,78c21.35.94,38.2,9.74,49.17,27.91,12,19.93,12,40.62,0,60.55-11,18.17-27.82,27-49.17,27.9Z" transform="translate(-0.02 0.3)"/></svg>