<svg id="Layer_1" data-name="Layer 1" xmlns="http://www.w3.org/2000/svg" viewBox="0 0 270.4 271.29"><defs><style>.cls-1{fill:#d7d7d7;}</style></defs><path class="cls-1" d="M246.41,141.46h-16.8c-4.27,0-7.1-2.63-7.1-6.52s2.81-6.52,7.12-6.53q16.78-.06,33.59,0c4.25,0,7.17,2.74,7.16,6.55s-3,6.5-7.17,6.51Z" transform="translate(0.02 0)"/><path class="cls-1" d="M129.28,247.17v-16.8c0-4.15,2.58-7,6.36-7s6.65,2.71,6.67,7q.08,16.92,0,33.84c0,4.22-2.83,7.14-6.62,7.08s-6.41-3-6.42-7.27C129.27,258.37,129.28,252.77,129.28,247.17Z" transform="translate(0.02 0)"/><path class="cls-1" d="M140.64,24.43v16.8c0,4.1-2.67,6.92-6.45,7s-6.57-2.71-6.59-6.81q-.09-17.16,0-34.31a6.53,6.53,0,1,1,13,.09C140.67,12.92,140.64,18.67,140.64,24.43Z" transform="translate(0.02 0)"/><path class="cls-1" d="M226,233.05c-1.53-.86-3.33-1.43-4.54-2.62-8.11-7.94-16.12-16-24.12-24-2.9-2.92-3-6.8-.3-9.49s6.61-2.62,9.48.23q12.17,12.09,24.25,24.26a6.32,6.32,0,0,1,1.5,7.38A7.76,7.76,0,0,1,226,233.05Z" transform="translate(0.02 0)"/><path class="cls-1" d="M44.7,39a14.94,14.94,0,0,1,3.87,2.28c8.11,7.93,16.12,16,24.1,24,2.79,2.81,2.83,6.67.26,9.3a6.48,6.48,0,0,1-9.15.24c-.12-.11-.23-.23-.34-.35q-12.09-12-24.08-24.07a6.31,6.31,0,0,1-1.52-7.36C38.91,40.45,41,39.21,44.7,39Z" transform="translate(0.02 0)"/><path class="cls-1" d="M38.1,226.17a14.36,14.36,0,0,1,2.16-3.81q11.93-12.18,24.08-24.15a6.51,6.51,0,0,1,9.24,9.18h0q-12.09,12.2-24.28,24.29a6.2,6.2,0,0,1-7.19,1.44C39.55,232,38.26,230,38.1,226.17Z" transform="translate(0.02 0)"/><path class="cls-1" d="M231.65,45.3a14.94,14.94,0,0,1-2.24,4c-7.86,8.05-15.83,16-23.82,24a6.48,6.48,0,0,1-9.16.35h0l-.16-.15c-2.7-2.65-2.67-6.58.2-9.48q11.81-11.9,23.72-23.78a6.34,6.34,0,0,1,7.35-1.6C230.1,39.64,231.29,41.76,231.65,45.3Z" transform="translate(0.02 0)"/><path class="cls-1" d="M23.57,143H7c-4.14,0-7-2.64-7-6.38S2.8,130,7.05,130H40.44c4.18,0,6.94,2.57,7,6.38s-2.73,6.55-7,6.57C34.77,143,29.18,143,23.57,143Z" transform="translate(0.02 0)"/><path class="cls-1" d="M212.62,135.62a77.76,77.76,0,1,0,0,.09Z" transform="translate(0.02 0)"/></svg>