<svg id="Layer_1" data-name="Layer 1" xmlns="http://www.w3.org/2000/svg" viewBox="0 0 40 40"><defs><style>.cls-1{fill:#d7d7d7;}</style></defs><path class="cls-1" d="M19.14,4a1,1,0,0,0-.24,0A20.46,20.46,0,0,0,4,23.6,20.57,20.57,0,0,0,24.71,44h0A20.73,20.73,0,0,0,43.93,31.18a1,1,0,0,0-.55-1.31,1.06,1.06,0,0,0-.66,0,19,19,0,0,1-5.25.75A18.55,18.55,0,0,1,18.75,12.2h0A18.34,18.34,0,0,1,20.1,5.38a1,1,0,0,0-.55-1.3A1,1,0,0,0,19.14,4ZM17.59,6.84a20.25,20.25,0,0,0-.84,5.35,20.58,20.58,0,0,0,20.72,20.4h0a21.2,21.2,0,0,0,3.62-.52A18.62,18.62,0,0,1,6,23.6H6A18.26,18.26,0,0,1,17.59,6.84Z" transform="translate(-4 -4)"/></svg>