<svg id="Layer_1" data-name="Layer 1" xmlns="http://www.w3.org/2000/svg" viewBox="0 0 48 34"><defs><style>.cls-1{fill:#d7d7d7;}</style></defs><path class="cls-1" d="M27.63,7.61A12.74,12.74,0,0,1,35.32,16c.37,0,.73,0,1.07-.06h0a10.75,10.75,0,0,1,3.28.62,12.53,12.53,0,0,1-3.36,24.31c-5.14.22-10.37.1-14.8.09a10,10,0,0,1-8.88-6.32A9.13,9.13,0,0,1,12.16,33H9.5A10,10,0,0,1,.65,26.39,10.32,10.32,0,0,1,3,15.51c2.69-2.7,6.59-3,10-1.88A13.09,13.09,0,0,1,24,7a11.62,11.62,0,0,1,3.61.61ZM24.3,9h0c-3.86-.15-7.79,2.33-9.86,6.13a.84.84,0,0,1-.18.24l-.16.15a1,1,0,0,1-1.07.21c-3-1.24-6.37-1-8.6,1.23a8.32,8.32,0,0,0-1.88,8.77A8,8,0,0,0,9.6,31H12v0a6.4,6.4,0,0,1,.06-.88V30a9.75,9.75,0,0,1,.74-2.7A10.41,10.41,0,0,1,15,24.13c2.7-2.59,6.58-2.9,10-1.8A13.88,13.88,0,0,1,31.2,17a14,14,0,0,1,2.07-.7,10.6,10.6,0,0,0-6.34-6.82A8.42,8.42,0,0,0,24.3,9Zm12,9a7,7,0,0,0-1.61.1,9.36,9.36,0,0,0-2.35.61,12.79,12.79,0,0,0-5.93,5.16c-.42.67-.73.83-1.44.61-2.92-.91-6-1-8.19.8a5.08,5.08,0,0,0-.43.38l0,0A7.94,7.94,0,0,0,14,31.33a3.93,3.93,0,0,0,0,.49,7.36,7.36,0,0,0,.48,2.1,8,8,0,0,0,7.1,5c4.75,0,9.51,0,14.26,0A10.57,10.57,0,0,0,39,18.45a12.63,12.63,0,0,0-2.68-.51Z" transform="translate(0 -7)"/></svg>