<svg id="Layer_1" data-name="Layer 1" xmlns="http://www.w3.org/2000/svg" viewBox="0 0 48 48"><defs><style>.cls-1,.cls-2{fill:#d7d7d7;}.cls-2{fill-rule:evenodd;}</style></defs><path class="cls-1" d="M23,10a1.12,1.12,0,0,0-.32,0,12.44,12.44,0,0,0-10.38,6.07c-3.26-1-6.93-.74-9.48,1.74A9.39,9.39,0,0,0,.62,27.93,9.5,9.5,0,0,0,9,34H22.55c7,0,10.42-5.3,11.3-10.17A12.06,12.06,0,0,0,26.13,10.6,10.26,10.26,0,0,0,23,10ZM23,12h0a8.32,8.32,0,0,1,2.49.48,10.08,10.08,0,0,1,6.43,11.05A9.87,9.87,0,0,1,22.52,32c-4.46,0-8.94,0-13.41,0a7.48,7.48,0,0,1-6.62-4.79,7.35,7.35,0,0,1,1.75-7.92c2.07-2,5.19-2.18,8.06-1.13a1.05,1.05,0,0,0,1.4-.58C15.76,14.21,19.33,11.86,23,12Z" transform="translate(0 0)"/><path class="cls-1" d="M32.61,7a7.65,7.65,0,0,0-6.49,4.52,1,1,0,1,0,1.82.82,5.65,5.65,0,0,1,6.89-3.13,6,6,0,0,1,4.11,6.62A5.87,5.87,0,0,1,33.19,21a1,1,0,1,0,0,2,7.89,7.89,0,0,0,7.72-6.86,8,8,0,0,0-5.51-8.81,7.47,7.47,0,0,0-2.8-.3Z" transform="translate(0 0)"/><path class="cls-2" d="M33,0a1,1,0,0,0-1,1h0V4a1,1,0,1,0,2,0V1a1,1,0,0,0-1-1Z" transform="translate(0 0)"/><path class="cls-2" d="M43,4a1,1,0,0,0-.69.3l-2,2a1,1,0,1,0,1.39,1.44l0,0,2-2A1,1,0,0,0,43,4Z" transform="translate(0 0)"/><path class="cls-2" d="M41,22a1,1,0,0,0-1,1,1,1,0,0,0,.3.72l2,2a1,1,0,0,0,1.44-1.39l0,0-2-2A1,1,0,0,0,41,22Z" transform="translate(0 0)"/><path class="cls-2" d="M44,13a1,1,0,0,0,0,2h3a1,1,0,0,0,0-2H44Z" transform="translate(0 0)"/><path class="cls-2" d="M23,4a1,1,0,0,0-1,1,1,1,0,0,0,.3.72l2,2a1,1,0,0,0,1.44-1.39l0,0-2-2A1,1,0,0,0,23,4Z" transform="translate(0 0)"/><path class="cls-1" d="M9,36a1,1,0,0,0-.79.43s-.52.75-1,1.65a14.78,14.78,0,0,0-.73,1.43A3.51,3.51,0,0,0,6,41a3,3,0,0,0,6,0,3.51,3.51,0,0,0-.4-1.49,14.78,14.78,0,0,0-.73-1.43c-.53-.9-1-1.65-1-1.65A1,1,0,0,0,9,36Zm0,2.87a1.59,1.59,0,0,1,.13.22,12.1,12.1,0,0,1,.64,1.22A4.07,4.07,0,0,1,10,41a1,1,0,0,1-2,0,5.61,5.61,0,0,1,.23-.69,12.1,12.1,0,0,1,.64-1.22A1.59,1.59,0,0,1,9,38.87Z" transform="translate(0 0)"/><path class="cls-1" d="M25,36a1,1,0,0,0-.79.43s-.52.75-1.05,1.65a14.78,14.78,0,0,0-.73,1.43A3.37,3.37,0,0,0,22,41a3,3,0,0,0,6,0,3.51,3.51,0,0,0-.4-1.49,12.9,12.9,0,0,0-.74-1.43c-.52-.9-1-1.65-1-1.65A1,1,0,0,0,25,36Zm0,2.87a1.59,1.59,0,0,1,.13.22,12.1,12.1,0,0,1,.64,1.22A5.61,5.61,0,0,1,26,41a1,1,0,0,1-2,0,4.07,4.07,0,0,1,.23-.69c.16-.37.4-.81.63-1.22C24.93,39,24.93,39,25,38.87Z" transform="translate(0 0)"/><path class="cls-1" d="M17,40a1,1,0,0,0-.79.43s-.52.75-1,1.65a14.78,14.78,0,0,0-.73,1.43A3.37,3.37,0,0,0,14,45a3,3,0,0,0,6,0,3.51,3.51,0,0,0-.4-1.49,12.9,12.9,0,0,0-.74-1.43c-.52-.9-1-1.65-1-1.65A1,1,0,0,0,17,40Zm0,2.87a1.59,1.59,0,0,1,.13.22,12.1,12.1,0,0,1,.64,1.22A5.61,5.61,0,0,1,18,45a1,1,0,0,1-2,0,4.07,4.07,0,0,1,.23-.69c.16-.37.4-.81.63-1.22C16.93,43,16.93,43,17,42.87Z" transform="translate(0 0)"/></svg>