<svg id="Layer_1" data-name="Layer 1" xmlns="http://www.w3.org/2000/svg" viewBox="0 0 30 48"><defs><style>.cls-1{fill:#d7d7d7;}</style></defs><path class="cls-1" d="M20.4,0l-.23,0A15.34,15.34,0,0,0,9,14.71,15.42,15.42,0,0,0,24.52,30h0a15.53,15.53,0,0,0,14.4-9.61,1,1,0,0,0-.56-1.31,1,1,0,0,0-.65,0,13.53,13.53,0,0,1-3.8.54A13.39,13.39,0,0,1,20.4,6.3a13,13,0,0,1,1-4.92A1,1,0,0,0,20.82.07,1.16,1.16,0,0,0,20.4,0ZM18.85,2.84A15,15,0,0,0,18.4,6.3,15.42,15.42,0,0,0,33.92,21.59h0a14.36,14.36,0,0,0,2.17-.31A13.45,13.45,0,0,1,11,14.71,13.15,13.15,0,0,1,18.85,2.84Z" transform="translate(-9 0)"/><path class="cls-1" d="M15,32a1,1,0,0,0-.79.43s-.52.75-1,1.65a14.78,14.78,0,0,0-.73,1.43A3.51,3.51,0,0,0,12,37a3,3,0,0,0,6,0,3.51,3.51,0,0,0-.4-1.49,14.78,14.78,0,0,0-.73-1.43c-.53-.9-1.05-1.65-1.05-1.65A1,1,0,0,0,15,32Zm0,2.87a1.59,1.59,0,0,1,.13.22,12.1,12.1,0,0,1,.64,1.22A4.07,4.07,0,0,1,16,37a1,1,0,0,1-2,0,4.07,4.07,0,0,1,.23-.69,12.1,12.1,0,0,1,.64-1.22A1.59,1.59,0,0,1,15,34.87Z" transform="translate(-9 0)"/><path class="cls-1" d="M33,32a1,1,0,0,0-.79.43s-.52.75-1.05,1.65a14.78,14.78,0,0,0-.73,1.43A3.51,3.51,0,0,0,30,37a3,3,0,0,0,6,0,3.51,3.51,0,0,0-.4-1.49,14.78,14.78,0,0,0-.73-1.43c-.53-.9-1-1.65-1-1.65A1,1,0,0,0,33,32Zm0,2.87a1.59,1.59,0,0,1,.13.22,12.1,12.1,0,0,1,.64,1.22A4.07,4.07,0,0,1,34,37a1,1,0,0,1-2,0,4.07,4.07,0,0,1,.23-.69,12.1,12.1,0,0,1,.64-1.22A1.59,1.59,0,0,1,33,34.87Z" transform="translate(-9 0)"/><path class="cls-1" d="M24,40a1,1,0,0,0-.79.43s-.52.75-1.05,1.65a14.78,14.78,0,0,0-.73,1.43A3.51,3.51,0,0,0,21,45a3,3,0,0,0,6,0,3.51,3.51,0,0,0-.4-1.49,14.78,14.78,0,0,0-.73-1.43c-.53-.9-1.05-1.65-1.05-1.65A1,1,0,0,0,24,40Zm0,2.87a1.59,1.59,0,0,1,.13.22,12.1,12.1,0,0,1,.64,1.22A4.07,4.07,0,0,1,25,45a1,1,0,0,1-2,0,4.07,4.07,0,0,1,.23-.69,12.1,12.1,0,0,1,.64-1.22A1.59,1.59,0,0,1,24,42.87Z" transform="translate(-9 0)"/></svg>