<svg id="Layer_1" data-name="Layer 1" xmlns="http://www.w3.org/2000/svg" viewBox="0 0 48 41"><defs><style>.cls-1,.cls-2{fill:#d7d7d7;}.cls-2{fill-rule:evenodd;}</style></defs><path class="cls-1" d="M24,15A12,12,0,0,0,12,27a1,1,0,0,0,1,1l11,0L35,28a1,1,0,0,0,1-1h0A12,12,0,0,0,24,15Zm0,2a10,10,0,0,1,5,1.35A9.86,9.86,0,0,1,33.87,26L24,25.94h0l-9.87,0A9.86,9.86,0,0,1,24,17Z" transform="translate(0 -3)"/><path class="cls-2" d="M24,3a1,1,0,0,0-1,1h0V9a1,1,0,0,0,2,0V4a1,1,0,0,0-1-1Z" transform="translate(0 -3)"/><path class="cls-2" d="M41,9a1,1,0,0,0-.69.3l-4,4a1,1,0,1,0,1.39,1.45l0,0,4-4A1,1,0,0,0,41,9Z" transform="translate(0 -3)"/><path class="cls-2" d="M7,9a1,1,0,0,0-1,1,1,1,0,0,0,.3.72l4,4a1,1,0,1,0,1.45-1.39l0,0-4-4A1,1,0,0,0,7,9Z" transform="translate(0 -3)"/><path class="cls-2" d="M42,26a1,1,0,0,0,0,2h5a1,1,0,1,0,0-2H42Z" transform="translate(0 -3)"/><path class="cls-2" d="M1,26a1,1,0,1,0,0,2H6a1,1,0,0,0,0-2H1Z" transform="translate(0 -3)"/><path class="cls-2" d="M17,32a1.06,1.06,0,0,0-.69.3l-2,2a1,1,0,0,0,1.39,1.44l0,0,2-2A1,1,0,0,0,17,32Z" transform="translate(0 -3)"/><path class="cls-2" d="M25,32a1,1,0,0,0-.69.3l-2,2a1,1,0,0,0,1.39,1.44l0,0,2-2A1,1,0,0,0,25,32Z" transform="translate(0 -3)"/><path class="cls-2" d="M33,32a1,1,0,0,0-.69.3l-2,2a1,1,0,0,0,0,1.41,1,1,0,0,0,1.42,0l0,0,2-2A1,1,0,0,0,33,32Z" transform="translate(0 -3)"/><path class="cls-2" d="M41,32a1,1,0,0,0-.69.3l-2,2a1,1,0,0,0,0,1.41,1,1,0,0,0,1.42,0l0,0,2-2A1,1,0,0,0,41,32Z" transform="translate(0 -3)"/><path class="cls-2" d="M9,32a1.06,1.06,0,0,0-.69.3l-2,2a1,1,0,0,0,1.39,1.44l0,0,2-2A1,1,0,0,0,9,32Z" transform="translate(0 -3)"/><path class="cls-2" d="M21,40a1,1,0,0,0-.69.3l-2,2a1,1,0,0,0,1.39,1.44l0,0,2-2A1,1,0,0,0,21,40Z" transform="translate(0 -3)"/><path class="cls-2" d="M29,40a1,1,0,0,0-.69.3l-2,2a1,1,0,0,0,0,1.41,1,1,0,0,0,1.42,0l0,0,2-2A1,1,0,0,0,29,40Z" transform="translate(0 -3)"/><path class="cls-2" d="M37,40a1,1,0,0,0-.69.3l-2,2a1,1,0,0,0,0,1.41,1,1,0,0,0,1.42,0l0,0,2-2A1,1,0,0,0,37,40Z" transform="translate(0 -3)"/><path class="cls-2" d="M13,40a1,1,0,0,0-.69.3l-2,2a1,1,0,0,0,1.39,1.44l0,0,2-2A1,1,0,0,0,13,40Z" transform="translate(0 -3)"/></svg>