<svg id="Layer_1" data-name="Layer 1" xmlns="http://www.w3.org/2000/svg" viewBox="0 0 43 46"><defs><style>.cls-1,.cls-2{fill:#d7d7d7;}.cls-1{fill-rule:evenodd;}</style></defs><path class="cls-1" d="M14,35a1,1,0,0,0-.68.3l-2,2a1,1,0,0,0,1.38,1.44l0,0,2-2A1,1,0,0,0,14,35Z" transform="translate(-2)"/><path class="cls-1" d="M22,35a1,1,0,0,0-.68.3l-2,2a1,1,0,1,0,1.38,1.44l0,0,2-2A1,1,0,0,0,22,35Z" transform="translate(-2)"/><path class="cls-1" d="M6,35a1,1,0,0,0-.68.3l-2,2a1,1,0,0,0,1.38,1.44l0,0,2-2A1,1,0,0,0,6,35Z" transform="translate(-2)"/><path class="cls-2" d="M35.86,0h-.14a1.15,1.15,0,0,0-.31.11A9,9,0,0,0,28,9V9a.22.22,0,0,0,0,.08,1,1,0,0,0,.57.84,9.49,9.49,0,0,1,5.27,6.94,1,1,0,0,0,.71.79A9.3,9.3,0,0,0,37,18h0a9,9,0,0,0,7.85-4.63A1,1,0,0,0,44.49,12a1,1,0,0,0-.64-.11,8.09,8.09,0,0,1-1,.08h0a7,7,0,0,1-7-7,7.15,7.15,0,0,1,.9-3.44A1,1,0,0,0,36.37.13,1,1,0,0,0,35.86,0Zm-1.7,2.61a9.13,9.13,0,0,0-.31,2.32,9,9,0,0,0,7.95,8.83A6.79,6.79,0,0,1,37,16a6.66,6.66,0,0,1-1.41-.2,11.4,11.4,0,0,0-5.53-7.27A6.94,6.94,0,0,1,34.16,2.61Z" transform="translate(-2)"/><path class="cls-2" d="M25,7a1.12,1.12,0,0,0-.32,0,12.43,12.43,0,0,0-10.38,6.08c-3.26-1.06-6.93-.75-9.48,1.73A9.39,9.39,0,0,0,2.62,24.93,9.5,9.5,0,0,0,11,31H24.55a.91.91,0,0,0,.43-.1A11.86,11.86,0,0,0,35.86,20.83,12.08,12.08,0,0,0,28.13,7.6,10.26,10.26,0,0,0,25,7ZM25,9h0a8.32,8.32,0,0,1,2.48.48,10.08,10.08,0,0,1,6.43,11.05A9.86,9.86,0,0,1,24.52,29H11.11a7.47,7.47,0,0,1-6.62-4.78,7.37,7.37,0,0,1,1.75-7.93c2.07-2,5.22-2.25,8.06-1.12h0l.09,0h.06l.13,0h.19a1,1,0,0,0,.29-.07l.18-.1.08-.06,0,0,0,0,.11-.11a.88.88,0,0,0,.19-.24A10.63,10.63,0,0,1,25,9Z" transform="translate(-2)"/><path class="cls-1" d="M30,35a1,1,0,0,0-.68.3l-2,2a1,1,0,1,0,1.38,1.44l0,0,2-2A1,1,0,0,0,30,35Z" transform="translate(-2)"/><path class="cls-1" d="M10,42a1,1,0,0,0-.68.3l-2,2a1,1,0,0,0,1.38,1.44l0,0,2-2A1,1,0,0,0,10,42Z" transform="translate(-2)"/><path class="cls-1" d="M18,42a1,1,0,0,0-.68.3l-2,2a1,1,0,0,0,1.38,1.44l0,0,2-2A1,1,0,0,0,18,42Z" transform="translate(-2)"/><path class="cls-1" d="M26,42a1,1,0,0,0-.68.3l-2,2a1,1,0,1,0,1.38,1.44l0,0,2-2A1,1,0,0,0,26,42Z" transform="translate(-2)"/></svg>