<svg id="Layer_1" data-name="Layer 1" xmlns="http://www.w3.org/2000/svg" viewBox="0 0 48 48"><defs><style>.cls-1,.cls-2{fill:#d7d7d7;}.cls-2{fill-rule:evenodd;}</style></defs><path class="cls-1" d="M27.63.61A12.74,12.74,0,0,1,35.32,9c.37,0,.73,0,1.07-.06h0a10.75,10.75,0,0,1,3.28.62,12.53,12.53,0,0,1-3.36,24.31c-5.14.22-10.37.1-14.8.09a10,10,0,0,1-8.88-6.32A9.13,9.13,0,0,1,12.16,26H9.5A10,10,0,0,1,.65,19.39,10.32,10.32,0,0,1,3,8.51c2.69-2.7,6.59-3,10-1.88A13.09,13.09,0,0,1,24,0a11.62,11.62,0,0,1,3.61.61ZM24.3,2h0c-3.86-.15-7.79,2.33-9.86,6.13a.84.84,0,0,1-.18.24l-.16.15A1,1,0,0,1,13,8.69c-3-1.24-6.37-1-8.6,1.23a8.32,8.32,0,0,0-1.88,8.77A8,8,0,0,0,9.6,24H12v0a6.4,6.4,0,0,1,.06-.88V23a9.75,9.75,0,0,1,.74-2.7A10.41,10.41,0,0,1,15,17.13c2.7-2.59,6.58-2.9,10-1.8A13.88,13.88,0,0,1,31.2,10a14,14,0,0,1,2.07-.7,10.6,10.6,0,0,0-6.34-6.82A8.42,8.42,0,0,0,24.3,2Zm12,9h0a9.8,9.8,0,0,0-1.53.07l-.08,0a9.81,9.81,0,0,0-2.35.61,12.21,12.21,0,0,0-5.93,5.16,1.12,1.12,0,0,1-.19.24l-.15.13v0l-.06.05-.07,0s0,0,0,0h0l-.07,0-.07,0h0l-.05,0,0,0h-.08a1,1,0,0,1-.59,0,8.2,8.2,0,0,0-8.19.8,5.08,5.08,0,0,0-.43.38l0,0A7.94,7.94,0,0,0,14,24.33a4.18,4.18,0,0,0,0,.5,7.37,7.37,0,0,0,.48,2.09,8,8,0,0,0,7.1,5H35.86A10.57,10.57,0,0,0,39,11.45a8.88,8.88,0,0,0-2.66-.51Z" transform="translate(0 0)"/><path class="cls-2" d="M32,43a1.06,1.06,0,0,0-.69.3l-2,2a1,1,0,1,0,1.38,1.44l0,0,2-2A1,1,0,0,0,32,43Z" transform="translate(0 0)"/><path class="cls-2" d="M16,43a1,1,0,0,0-.68.3l-2,2a1,1,0,0,0,1.38,1.44l0,0,2-2A1,1,0,0,0,16,43Z" transform="translate(0 0)"/><path class="cls-2" d="M26,35a1,1,0,0,0-.76.37l-5,6a1,1,0,0,0,.13,1.41,1,1,0,0,0,.8.22l3.34-.56-3.27,3.92a1,1,0,0,0,1.51,1.32l0,0,5-6a1,1,0,0,0-.13-1.41,1,1,0,0,0-.8-.22l-3.34.56,3.27-3.92a1,1,0,0,0-.11-1.41A1,1,0,0,0,26,35Z" transform="translate(0 0)"/><path class="cls-2" d="M8,43a1,1,0,0,0-.68.3l-2,2a1,1,0,1,0,1.38,1.44l0,0,2-2A1,1,0,0,0,8,43Z" transform="translate(0 0)"/><path class="cls-2" d="M40,43a1.06,1.06,0,0,0-.69.3l-2,2a1,1,0,1,0,1.38,1.44l0,0,2-2A1,1,0,0,0,40,43Z" transform="translate(0 0)"/><path class="cls-2" d="M42,36a1.06,1.06,0,0,0-.69.3l-2,2a1,1,0,1,0,1.38,1.44l0,0,2-2A1,1,0,0,0,42,36Z" transform="translate(0 0)"/><path class="cls-2" d="M34,36a1.06,1.06,0,0,0-.69.3l-2,2a1,1,0,1,0,1.38,1.44l0,0,2-2A1,1,0,0,0,34,36Z" transform="translate(0 0)"/><path class="cls-2" d="M18,36a1.06,1.06,0,0,0-.69.3l-2,2a1,1,0,0,0,1.38,1.44l0,0,2-2A1,1,0,0,0,18,36Z" transform="translate(0 0)"/><path class="cls-2" d="M10,36a1.06,1.06,0,0,0-.69.3l-2,2a1,1,0,0,0,1.38,1.44l0,0,2-2A1,1,0,0,0,10,36Z" transform="translate(0 0)"/></svg>