<svg id="Layer_1" data-name="Layer 1" xmlns="http://www.w3.org/2000/svg" viewBox="0 0 48 48"><defs><style>.cls-1,.cls-2{fill:#d7d7d7;}.cls-2{fill-rule:evenodd;}</style></defs><path class="cls-1" d="M22.68,10a12.4,12.4,0,0,0-10.35,6.1c-3.26-1.06-6.93-.75-9.48,1.73A9.39,9.39,0,0,0,.62,27.93,9.5,9.5,0,0,0,9,34H22.55a.91.91,0,0,0,.43-.1A11.84,11.84,0,0,0,33.85,23.83,12.07,12.07,0,0,0,26.13,10.6,11.23,11.23,0,0,0,22.68,10ZM23,12h0a8,8,0,0,1,2.49.48,10.06,10.06,0,0,1,6.43,11A9.86,9.86,0,0,1,22.52,32H9.11a7.47,7.47,0,0,1-6.62-4.79,7.35,7.35,0,0,1,1.75-7.92c2.07-2,5.22-2.25,8.06-1.12h0l.09,0h.06l.13,0h.09l.2,0,.1,0,.09,0,.18-.1.08-.06,0,0,0,0,.11-.1a1.06,1.06,0,0,0,.19-.24A10.63,10.63,0,0,1,23,12Z" transform="translate(0 0)"/><path class="cls-1" d="M32.61,7a7.61,7.61,0,0,0-6.47,4.51,1,1,0,1,0,1.83.81,5.6,5.6,0,0,1,6.86-3.11,6,6,0,0,1,4.11,6.62A5.87,5.87,0,0,1,33.19,21a1,1,0,1,0,0,2,7.89,7.89,0,0,0,7.72-6.86,8,8,0,0,0-5.51-8.81,7.47,7.47,0,0,0-2.8-.3Z" transform="translate(0 0)"/><path class="cls-2" d="M33,0a1,1,0,0,0-1,1h0V4a1,1,0,1,0,2,0V1a1,1,0,0,0-1-1Z" transform="translate(0 0)"/><path class="cls-2" d="M43,4a1,1,0,0,0-.69.3l-2,2a1,1,0,1,0,1.39,1.45l0,0,2-2A1,1,0,0,0,43,4Z" transform="translate(0 0)"/><path class="cls-2" d="M41,22a1,1,0,0,0-1,1,1,1,0,0,0,.3.72l2,2a1,1,0,0,0,1.44-1.39l0,0-2-2A1,1,0,0,0,41,22Z" transform="translate(0 0)"/><path class="cls-2" d="M44,13a1,1,0,0,0,0,2h3a1,1,0,0,0,0-2H44Z" transform="translate(0 0)"/><path class="cls-2" d="M23,4a1,1,0,0,0-1,1,1,1,0,0,0,.3.72l2,2a1,1,0,1,0,1.45-1.39l0,0-2-2A1,1,0,0,0,23,4Z" transform="translate(0 0)"/><path class="cls-2" d="M8,39a1,1,0,0,0-1,1H7v7a1,1,0,1,0,2,0V40a1,1,0,0,0-1-1Z" transform="translate(0 0)"/><path class="cls-2" d="M11,41a1,1,0,0,0-.45.11l-6,3a1,1,0,0,0-.49,1.33,1,1,0,0,0,1.33.48l0,0,6-3A1,1,0,0,0,11,41Z" transform="translate(0 0)"/><path class="cls-2" d="M5,41a1,1,0,0,0-.41,1.9l6,3a1,1,0,0,0,.94-1.77l-.05,0-6-3A1.13,1.13,0,0,0,5,41Z" transform="translate(0 0)"/><path class="cls-2" d="M19,35a1,1,0,0,0-1,1h0v7a1,1,0,1,0,2,0V36a1,1,0,0,0-1-1Z" transform="translate(0 0)"/><path class="cls-2" d="M22,37a1,1,0,0,0-.45.11l-6,3a1,1,0,0,0-.49,1.33,1,1,0,0,0,1.33.48l.05,0,6-3A1,1,0,0,0,22,37Z" transform="translate(0 0)"/><path class="cls-2" d="M16,37a1,1,0,0,0-1,1,1,1,0,0,0,.57.88l6,3a1,1,0,0,0,.94-1.77l-.05,0-6-3A1.13,1.13,0,0,0,16,37Z" transform="translate(0 0)"/><path class="cls-2" d="M30,39a1,1,0,0,0-1,1h0v7a1,1,0,1,0,2,0V40a1,1,0,0,0-1-1Z" transform="translate(0 0)"/><path class="cls-2" d="M33,41a1,1,0,0,0-.45.11l-6,3a1,1,0,1,0,.84,1.81l.05,0,6-3A1,1,0,0,0,33,41Z" transform="translate(0 0)"/><path class="cls-2" d="M27,41a1,1,0,0,0-1,1,1,1,0,0,0,.57.88l6,3a1,1,0,0,0,.94-1.77l0,0-6-3A1.16,1.16,0,0,0,27,41Z" transform="translate(0 0)"/><path class="cls-2" d="M41,35a1,1,0,0,0-1,1h0v7a1,1,0,1,0,2,0V36a1,1,0,0,0-1-1Z" transform="translate(0 0)"/><path class="cls-2" d="M44,37a1,1,0,0,0-.45.11l-6,3a1,1,0,0,0,.85,1.81l.05,0,6-3a1,1,0,0,0,.47-1.33A1,1,0,0,0,44,37Z" transform="translate(0 0)"/><path class="cls-2" d="M38,37a1,1,0,0,0-1,1,1,1,0,0,0,.56.88l6,3a1,1,0,0,0,.94-1.77l0,0-6-3A1.16,1.16,0,0,0,38,37Z" transform="translate(0 0)"/></svg>