<svg id="Layer_1" data-name="Layer 1" xmlns="http://www.w3.org/2000/svg" viewBox="0 0 43 47"><defs><style>.cls-1,.cls-2{fill:#d7d7d7;}.cls-1{fill-rule:evenodd;}</style></defs><path class="cls-1" d="M8,39a1,1,0,0,0-1,1H7v7a1,1,0,1,0,2,0V40a1,1,0,0,0-1-1Z" transform="translate(-3 -1)"/><path class="cls-1" d="M11,41a1,1,0,0,0-.45.11l-6,3a1,1,0,0,0-.49,1.32,1,1,0,0,0,1.33.49l0,0,6-3A1,1,0,0,0,11,41Z" transform="translate(-3 -1)"/><path class="cls-1" d="M5,41a1,1,0,0,0-.41,1.9l6,3a1,1,0,0,0,.94-1.76l-.05,0-6-3A1.13,1.13,0,0,0,5,41Z" transform="translate(-3 -1)"/><path class="cls-2" d="M36.86,1h-.14a1.15,1.15,0,0,0-.31.11A9,9,0,0,0,29,10V10a.17.17,0,0,0,0,.07,1,1,0,0,0,.57.85,9.49,9.49,0,0,1,5.27,6.94,1,1,0,0,0,.71.79A9.3,9.3,0,0,0,38,19h0a9,9,0,0,0,7.85-4.63A1,1,0,0,0,45.49,13a1,1,0,0,0-.64-.11,8.09,8.09,0,0,1-1,.08h0a7,7,0,0,1-7-7,7.15,7.15,0,0,1,.9-3.44,1,1,0,0,0-.38-1.36A1,1,0,0,0,36.86,1Zm-1.7,2.61a9.07,9.07,0,0,0-.31,2.32,9,9,0,0,0,7.95,8.83A6.79,6.79,0,0,1,38,17a6.66,6.66,0,0,1-1.41-.2,11.4,11.4,0,0,0-5.53-7.27,6.94,6.94,0,0,1,4.08-5.92Z" transform="translate(-3 -1)"/><path class="cls-2" d="M26,8a1.12,1.12,0,0,0-.32,0,12.43,12.43,0,0,0-10.38,6.08c-3.26-1.06-6.93-.75-9.48,1.73A9.39,9.39,0,0,0,3.62,25.93,9.5,9.5,0,0,0,12,32H25.55C32.48,32,36,26.7,36.86,21.83A12.09,12.09,0,0,0,29.13,8.6,10.57,10.57,0,0,0,26,8ZM26,10h0a8,8,0,0,1,2.49.48,10.06,10.06,0,0,1,6.43,11A9.86,9.86,0,0,1,25.52,30c-4.46,0-8.94,0-13.41,0a7.47,7.47,0,0,1-6.62-4.78,7.37,7.37,0,0,1,1.75-7.93c2.07-2,5.18-2.14,8.06-1.12a1.18,1.18,0,0,0,1.4-.58C18.81,12.24,22.33,9.87,26,10Z" transform="translate(-3 -1)"/><path class="cls-1" d="M30,39a1,1,0,0,0-1,1h0v7a1,1,0,1,0,2,0V40a1,1,0,0,0-1-1Z" transform="translate(-3 -1)"/><path class="cls-1" d="M33,41a1,1,0,0,0-.45.11l-6,3a1,1,0,0,0-.49,1.32,1,1,0,0,0,1.33.49l0,0,6-3a1,1,0,0,0,.47-1.33A1,1,0,0,0,33,41Z" transform="translate(-3 -1)"/><path class="cls-1" d="M27,41a1,1,0,0,0-.41,1.9l6,3a1,1,0,1,0,.94-1.76l0,0-6-3A1.13,1.13,0,0,0,27,41Z" transform="translate(-3 -1)"/><path class="cls-1" d="M19,34a1,1,0,0,0-1,1h0v7a1,1,0,0,0,2,0V35a1,1,0,0,0-1-1Z" transform="translate(-3 -1)"/><path class="cls-1" d="M22,36a1,1,0,0,0-.45.11l-6,3a1,1,0,0,0-.49,1.32,1,1,0,0,0,1.33.49l0,0,6-3A1,1,0,0,0,22,36Z" transform="translate(-3 -1)"/><path class="cls-1" d="M16,36a1,1,0,0,0-.41,1.9l6,3a1,1,0,0,0,.94-1.76l0,0-6-3A1.13,1.13,0,0,0,16,36Z" transform="translate(-3 -1)"/><path class="cls-1" d="M41,34a1,1,0,0,0-1,1h0v7a1,1,0,0,0,2,0V35a1,1,0,0,0-1-1Z" transform="translate(-3 -1)"/><path class="cls-1" d="M44,36a1,1,0,0,0-.45.11l-6,3a1,1,0,0,0-.49,1.32,1,1,0,0,0,1.33.49l0,0,6-3a1,1,0,0,0,.47-1.33A1,1,0,0,0,44,36Z" transform="translate(-3 -1)"/><path class="cls-1" d="M38,36a1,1,0,0,0-.41,1.9l6,3a1,1,0,1,0,.94-1.76l0,0-6-3A1.13,1.13,0,0,0,38,36Z" transform="translate(-3 -1)"/></svg>