<svg id="Layer_1" data-name="Layer 1" xmlns="http://www.w3.org/2000/svg" viewBox="0 0 48 48"><defs><style>.cls-1,.cls-2{fill:#d7d7d7;}.cls-2{fill-rule:evenodd;}</style></defs><path class="cls-1" d="M24,36A13,13,0,1,1,37,23,13,13,0,0,1,24,36Zm0-2A11,11,0,1,0,13,23,11,11,0,0,0,24,34Z" transform="translate(0 0)"/><path class="cls-2" d="M24,0a1,1,0,0,0-1,1h0V6a1,1,0,0,0,2,0V1a1,1,0,0,0-1-1Z" transform="translate(0 0)"/><path class="cls-2" d="M41,6a1,1,0,0,0-.69.3l-4,4a1,1,0,0,0,1.39,1.44l0,0,4-4A1,1,0,0,0,41,6Z" transform="translate(0 0)"/><path class="cls-2" d="M7,6A1,1,0,0,0,6,7a1,1,0,0,0,.3.72l4,4a1,1,0,0,0,1.42,0,1,1,0,0,0,0-1.41l0,0-4-4A1,1,0,0,0,7,6Z" transform="translate(0 0)"/><path class="cls-2" d="M42,23a1,1,0,0,0,0,2h5a1,1,0,1,0,0-2H42Z" transform="translate(0 0)"/><path class="cls-2" d="M1,23a1,1,0,0,0,0,2H6a1,1,0,1,0,0-2H1Z" transform="translate(0 0)"/><path class="cls-2" d="M8,38a1,1,0,0,0-.59,1.79,18.45,18.45,0,0,0,1.54,1.07A6,6,0,0,0,12,42a4.14,4.14,0,0,0,2.62-1.21A2.93,2.93,0,0,1,16,40a2.93,2.93,0,0,1,1.38.78A4.11,4.11,0,0,0,20,42a4.14,4.14,0,0,0,2.62-1.21A2.93,2.93,0,0,1,24,40a2.91,2.91,0,0,1,1.37.78A4.14,4.14,0,0,0,28,42a4.09,4.09,0,0,0,2.62-1.21A2.93,2.93,0,0,1,32,40a2.93,2.93,0,0,1,1.38.78A4.14,4.14,0,0,0,36,42a6,6,0,0,0,3.08-1.14,18.45,18.45,0,0,0,1.54-1.07,1,1,0,0,0-1.24-1.57h0a14.94,14.94,0,0,1-1.34.93A6.35,6.35,0,0,1,36,40a2.93,2.93,0,0,1-1.38-.78A4.11,4.11,0,0,0,32,38a4.14,4.14,0,0,0-2.62,1.21A2.93,2.93,0,0,1,28,40a2.91,2.91,0,0,1-1.37-.78A4.14,4.14,0,0,0,24,38a4.14,4.14,0,0,0-2.63,1.21A2.87,2.87,0,0,1,20,40a2.93,2.93,0,0,1-1.38-.78A4.14,4.14,0,0,0,16,38a4.11,4.11,0,0,0-2.62,1.21A2.93,2.93,0,0,1,12,40a6.35,6.35,0,0,1-2-.85,14.94,14.94,0,0,1-1.34-.93A1.06,1.06,0,0,0,8,38Z" transform="translate(0 0)"/><path class="cls-2" d="M8,44a1,1,0,0,0-.59,1.79,18.45,18.45,0,0,0,1.54,1.07A6,6,0,0,0,12,48a4.14,4.14,0,0,0,2.62-1.21A2.93,2.93,0,0,1,16,46a2.93,2.93,0,0,1,1.38.78A4.11,4.11,0,0,0,20,48a4.14,4.14,0,0,0,2.62-1.21A2.93,2.93,0,0,1,24,46a2.91,2.91,0,0,1,1.37.78A4.14,4.14,0,0,0,28,48a4.09,4.09,0,0,0,2.62-1.21A2.93,2.93,0,0,1,32,46a2.93,2.93,0,0,1,1.38.78A4.14,4.14,0,0,0,36,48a6,6,0,0,0,3.08-1.14,18.45,18.45,0,0,0,1.54-1.07,1,1,0,0,0-1.24-1.57,14.94,14.94,0,0,1-1.34.93A6.35,6.35,0,0,1,36,46a2.93,2.93,0,0,1-1.38-.78A4.11,4.11,0,0,0,32,44a4.14,4.14,0,0,0-2.62,1.21A2.93,2.93,0,0,1,28,46a2.91,2.91,0,0,1-1.37-.78A4.14,4.14,0,0,0,24,44a4.14,4.14,0,0,0-2.63,1.21A2.87,2.87,0,0,1,20,46a2.93,2.93,0,0,1-1.38-.78A4.14,4.14,0,0,0,16,44a4.11,4.11,0,0,0-2.62,1.21A2.93,2.93,0,0,1,12,46a6.35,6.35,0,0,1-2-.85,14.94,14.94,0,0,1-1.34-.93A1.06,1.06,0,0,0,8,44Z" transform="translate(0 0)"/></svg>